<mxfile host="app.diagrams.net" modified="2024-04-25T12:58:09.678Z" agent="Mozilla/5.0 (Windows NT 10.0; Win64; x64) AppleWebKit/537.36 (KHTML, like Gecko) Chrome/124.0.0.0 Safari/537.36" etag="PfR_LVFrHsZ7LgK3mJIs" version="24.3.0" type="github" pages="4">
  <diagram name="Use Case Diagram" id="CAqo5OKejQljD2LUqa1w">
    <mxGraphModel dx="1199" dy="726" grid="1" gridSize="10" guides="1" tooltips="1" connect="1" arrows="1" fold="1" page="1" pageScale="1" pageWidth="850" pageHeight="1100" math="0" shadow="0">
      <root>
        <mxCell id="0" />
        <mxCell id="1" parent="0" />
        <mxCell id="iM5aHK-xHcqv_K-w8yEb-65" value="" style="rounded=0;whiteSpace=wrap;html=1;" parent="1" vertex="1">
          <mxGeometry x="160" width="640" height="1040" as="geometry" />
        </mxCell>
        <mxCell id="ADDI52q2cOr9kJiZ27N4-5" style="rounded=0;orthogonalLoop=1;jettySize=auto;html=1;entryX=0;entryY=0.5;entryDx=0;entryDy=0;dashed=1;dashPattern=8 8;strokeWidth=2;" edge="1" parent="1" source="iM5aHK-xHcqv_K-w8yEb-1" target="ADDI52q2cOr9kJiZ27N4-3">
          <mxGeometry relative="1" as="geometry" />
        </mxCell>
        <mxCell id="ADDI52q2cOr9kJiZ27N4-6" style="rounded=0;orthogonalLoop=1;jettySize=auto;html=1;entryX=0;entryY=0.5;entryDx=0;entryDy=0;dashed=1;dashPattern=8 8;strokeWidth=2;" edge="1" parent="1" source="iM5aHK-xHcqv_K-w8yEb-1" target="ADDI52q2cOr9kJiZ27N4-4">
          <mxGeometry relative="1" as="geometry" />
        </mxCell>
        <mxCell id="iM5aHK-xHcqv_K-w8yEb-1" value="&lt;font style=&quot;font-size: 18px;&quot;&gt;Authentication&lt;/font&gt;" style="ellipse;whiteSpace=wrap;html=1;fillColor=#dae8fc;strokeColor=#6c8ebf;fontSize=18;fontStyle=1" parent="1" vertex="1">
          <mxGeometry x="280" y="570" width="160" height="80" as="geometry" />
        </mxCell>
        <mxCell id="iM5aHK-xHcqv_K-w8yEb-38" style="rounded=0;orthogonalLoop=1;jettySize=auto;html=1;entryX=0;entryY=0.5;entryDx=0;entryDy=0;strokeWidth=2;" parent="1" source="iM5aHK-xHcqv_K-w8yEb-2" target="iM5aHK-xHcqv_K-w8yEb-1" edge="1">
          <mxGeometry relative="1" as="geometry" />
        </mxCell>
        <mxCell id="iM5aHK-xHcqv_K-w8yEb-41" style="rounded=0;orthogonalLoop=1;jettySize=auto;html=1;entryX=0;entryY=0.5;entryDx=0;entryDy=0;strokeWidth=2;" parent="1" source="iM5aHK-xHcqv_K-w8yEb-2" target="iM5aHK-xHcqv_K-w8yEb-29" edge="1">
          <mxGeometry relative="1" as="geometry" />
        </mxCell>
        <mxCell id="iM5aHK-xHcqv_K-w8yEb-43" style="rounded=0;orthogonalLoop=1;jettySize=auto;html=1;entryX=0;entryY=0.5;entryDx=0;entryDy=0;strokeWidth=2;" parent="1" source="iM5aHK-xHcqv_K-w8yEb-2" target="iM5aHK-xHcqv_K-w8yEb-28" edge="1">
          <mxGeometry relative="1" as="geometry" />
        </mxCell>
        <mxCell id="iM5aHK-xHcqv_K-w8yEb-44" style="rounded=0;orthogonalLoop=1;jettySize=auto;html=1;entryX=0;entryY=0.5;entryDx=0;entryDy=0;strokeWidth=2;" parent="1" source="iM5aHK-xHcqv_K-w8yEb-2" target="iM5aHK-xHcqv_K-w8yEb-27" edge="1">
          <mxGeometry relative="1" as="geometry" />
        </mxCell>
        <mxCell id="iM5aHK-xHcqv_K-w8yEb-45" style="rounded=0;orthogonalLoop=1;jettySize=auto;html=1;entryX=0;entryY=0.5;entryDx=0;entryDy=0;strokeWidth=2;" parent="1" source="iM5aHK-xHcqv_K-w8yEb-2" target="iM5aHK-xHcqv_K-w8yEb-30" edge="1">
          <mxGeometry relative="1" as="geometry" />
        </mxCell>
        <mxCell id="iM5aHK-xHcqv_K-w8yEb-55" style="rounded=0;orthogonalLoop=1;jettySize=auto;html=1;entryX=0;entryY=0.5;entryDx=0;entryDy=0;strokeWidth=2;" parent="1" source="iM5aHK-xHcqv_K-w8yEb-2" target="iM5aHK-xHcqv_K-w8yEb-35" edge="1">
          <mxGeometry relative="1" as="geometry" />
        </mxCell>
        <mxCell id="iM5aHK-xHcqv_K-w8yEb-2" value="&lt;font style=&quot;font-size: 18px;&quot;&gt;Customer&lt;/font&gt;" style="shape=umlActor;verticalLabelPosition=bottom;verticalAlign=top;html=1;outlineConnect=0;fontSize=18;fontStyle=1" parent="1" vertex="1">
          <mxGeometry x="40" y="290" width="80" height="160" as="geometry" />
        </mxCell>
        <mxCell id="iM5aHK-xHcqv_K-w8yEb-42" style="edgeStyle=orthogonalEdgeStyle;rounded=0;orthogonalLoop=1;jettySize=auto;html=1;entryX=1;entryY=0.5;entryDx=0;entryDy=0;dashed=1;dashPattern=8 8;strokeWidth=2;" parent="1" source="iM5aHK-xHcqv_K-w8yEb-26" target="iM5aHK-xHcqv_K-w8yEb-29" edge="1">
          <mxGeometry relative="1" as="geometry" />
        </mxCell>
        <mxCell id="iM5aHK-xHcqv_K-w8yEb-26" value="&lt;font style=&quot;font-size: 18px;&quot;&gt;Browser Product&lt;/font&gt;" style="ellipse;whiteSpace=wrap;html=1;fillColor=#fff2cc;strokeColor=#d6b656;fontSize=18;fontStyle=1" parent="1" vertex="1">
          <mxGeometry x="560" y="60" width="160" height="80" as="geometry" />
        </mxCell>
        <mxCell id="iM5aHK-xHcqv_K-w8yEb-27" value="&lt;font style=&quot;font-size: 18px;&quot;&gt;Add to Cart&lt;/font&gt;" style="ellipse;whiteSpace=wrap;html=1;fillColor=#dae8fc;strokeColor=#6c8ebf;fontStyle=1" parent="1" vertex="1">
          <mxGeometry x="280" y="170" width="160" height="80" as="geometry" />
        </mxCell>
        <mxCell id="iM5aHK-xHcqv_K-w8yEb-28" value="&lt;font style=&quot;font-size: 18px;&quot;&gt;&lt;b&gt;View Order History&lt;/b&gt;&lt;/font&gt;" style="ellipse;whiteSpace=wrap;html=1;fillColor=#dae8fc;strokeColor=#6c8ebf;" parent="1" vertex="1">
          <mxGeometry x="280" y="450" width="160" height="80" as="geometry" />
        </mxCell>
        <mxCell id="iM5aHK-xHcqv_K-w8yEb-29" value="&lt;font style=&quot;font-size: 18px;&quot;&gt;&lt;b&gt;Search Product&lt;/b&gt;&lt;/font&gt;" style="ellipse;whiteSpace=wrap;html=1;fillColor=#dae8fc;strokeColor=#6c8ebf;" parent="1" vertex="1">
          <mxGeometry x="280" y="60" width="160" height="80" as="geometry" />
        </mxCell>
        <mxCell id="iM5aHK-xHcqv_K-w8yEb-46" style="edgeStyle=orthogonalEdgeStyle;rounded=0;orthogonalLoop=1;jettySize=auto;html=1;entryX=0.5;entryY=1;entryDx=0;entryDy=0;dashed=1;dashPattern=8 8;strokeWidth=2;" parent="1" source="iM5aHK-xHcqv_K-w8yEb-30" target="iM5aHK-xHcqv_K-w8yEb-27" edge="1">
          <mxGeometry relative="1" as="geometry" />
        </mxCell>
        <mxCell id="iM5aHK-xHcqv_K-w8yEb-58" style="rounded=0;orthogonalLoop=1;jettySize=auto;html=1;entryX=0;entryY=0.5;entryDx=0;entryDy=0;strokeWidth=2;dashed=1;dashPattern=8 8;" parent="1" source="iM5aHK-xHcqv_K-w8yEb-30" target="iM5aHK-xHcqv_K-w8yEb-31" edge="1">
          <mxGeometry relative="1" as="geometry" />
        </mxCell>
        <mxCell id="iM5aHK-xHcqv_K-w8yEb-59" style="rounded=0;orthogonalLoop=1;jettySize=auto;html=1;entryX=0;entryY=0.5;entryDx=0;entryDy=0;strokeWidth=2;dashed=1;dashPattern=8 8;" parent="1" source="iM5aHK-xHcqv_K-w8yEb-30" target="iM5aHK-xHcqv_K-w8yEb-32" edge="1">
          <mxGeometry relative="1" as="geometry" />
        </mxCell>
        <mxCell id="iM5aHK-xHcqv_K-w8yEb-30" value="&lt;font style=&quot;font-size: 18px;&quot;&gt;Checkout&lt;/font&gt;" style="ellipse;whiteSpace=wrap;html=1;fillColor=#dae8fc;strokeColor=#6c8ebf;fontSize=18;fontStyle=1" parent="1" vertex="1">
          <mxGeometry x="280" y="330" width="160" height="80" as="geometry" />
        </mxCell>
        <mxCell id="iM5aHK-xHcqv_K-w8yEb-31" value="&lt;font style=&quot;font-size: 18px;&quot;&gt;Payment&lt;/font&gt;" style="ellipse;whiteSpace=wrap;html=1;fillColor=#fff2cc;strokeColor=#d6b656;fontSize=18;fontStyle=1" parent="1" vertex="1">
          <mxGeometry x="560" y="250" width="160" height="80" as="geometry" />
        </mxCell>
        <mxCell id="iM5aHK-xHcqv_K-w8yEb-32" value="&lt;font style=&quot;font-size: 18px;&quot;&gt;Shipping&lt;/font&gt;" style="ellipse;whiteSpace=wrap;html=1;fillColor=#fff2cc;strokeColor=#d6b656;fontSize=18;fontStyle=1" parent="1" vertex="1">
          <mxGeometry x="560" y="410" width="160" height="80" as="geometry" />
        </mxCell>
        <mxCell id="iM5aHK-xHcqv_K-w8yEb-33" value="Manage Product" style="ellipse;whiteSpace=wrap;html=1;fillColor=#dae8fc;strokeColor=#6c8ebf;fontSize=18;fontStyle=1;align=center;" parent="1" vertex="1">
          <mxGeometry x="280" y="930" width="160" height="80" as="geometry" />
        </mxCell>
        <mxCell id="iM5aHK-xHcqv_K-w8yEb-34" value="&lt;span style=&quot;font-size: 18px;&quot;&gt;Sales Dashboard&lt;/span&gt;" style="ellipse;whiteSpace=wrap;html=1;fillColor=#dae8fc;strokeColor=#6c8ebf;fontSize=18;fontStyle=1" parent="1" vertex="1">
          <mxGeometry x="280" y="810" width="160" height="80" as="geometry" />
        </mxCell>
        <mxCell id="iM5aHK-xHcqv_K-w8yEb-35" value="&lt;font style=&quot;font-size: 18px;&quot;&gt;Logout&lt;/font&gt;" style="ellipse;whiteSpace=wrap;html=1;fillColor=#dae8fc;strokeColor=#6c8ebf;fontSize=18;fontStyle=1" parent="1" vertex="1">
          <mxGeometry x="280" y="690" width="160" height="80" as="geometry" />
        </mxCell>
        <mxCell id="iM5aHK-xHcqv_K-w8yEb-47" value="&lt;font style=&quot;font-size: 18px;&quot;&gt;&amp;lt;&amp;lt;extend&amp;gt;&amp;gt;&lt;/font&gt;" style="text;html=1;align=center;verticalAlign=middle;resizable=0;points=[];autosize=1;strokeColor=none;fillColor=none;" parent="1" vertex="1">
          <mxGeometry x="440" y="100" width="120" height="40" as="geometry" />
        </mxCell>
        <mxCell id="iM5aHK-xHcqv_K-w8yEb-50" value="&lt;font style=&quot;font-size: 18px;&quot;&gt;&amp;lt;&amp;lt;extend&amp;gt;&amp;gt;&lt;/font&gt;" style="text;html=1;align=center;verticalAlign=middle;resizable=0;points=[];autosize=1;strokeColor=none;fillColor=none;" parent="1" vertex="1">
          <mxGeometry x="240" y="270" width="120" height="40" as="geometry" />
        </mxCell>
        <mxCell id="iM5aHK-xHcqv_K-w8yEb-53" style="rounded=0;orthogonalLoop=1;jettySize=auto;html=1;entryX=0;entryY=0.5;entryDx=0;entryDy=0;strokeWidth=2;" parent="1" source="iM5aHK-xHcqv_K-w8yEb-52" target="iM5aHK-xHcqv_K-w8yEb-1" edge="1">
          <mxGeometry relative="1" as="geometry" />
        </mxCell>
        <mxCell id="iM5aHK-xHcqv_K-w8yEb-56" style="rounded=0;orthogonalLoop=1;jettySize=auto;html=1;entryX=0;entryY=0.5;entryDx=0;entryDy=0;strokeWidth=2;" parent="1" source="iM5aHK-xHcqv_K-w8yEb-52" target="iM5aHK-xHcqv_K-w8yEb-34" edge="1">
          <mxGeometry relative="1" as="geometry" />
        </mxCell>
        <mxCell id="iM5aHK-xHcqv_K-w8yEb-57" style="rounded=0;orthogonalLoop=1;jettySize=auto;html=1;entryX=0;entryY=0.5;entryDx=0;entryDy=0;strokeWidth=2;" parent="1" source="iM5aHK-xHcqv_K-w8yEb-52" target="iM5aHK-xHcqv_K-w8yEb-33" edge="1">
          <mxGeometry relative="1" as="geometry" />
        </mxCell>
        <mxCell id="ADDI52q2cOr9kJiZ27N4-2" style="rounded=0;orthogonalLoop=1;jettySize=auto;html=1;strokeWidth=2;" edge="1" parent="1" source="iM5aHK-xHcqv_K-w8yEb-52" target="iM5aHK-xHcqv_K-w8yEb-35">
          <mxGeometry relative="1" as="geometry" />
        </mxCell>
        <mxCell id="iM5aHK-xHcqv_K-w8yEb-52" value="&lt;font style=&quot;font-size: 18px;&quot;&gt;Admin&lt;/font&gt;" style="shape=umlActor;verticalLabelPosition=bottom;verticalAlign=top;html=1;outlineConnect=0;fontSize=18;fontStyle=1" parent="1" vertex="1">
          <mxGeometry x="40" y="730" width="80" height="160" as="geometry" />
        </mxCell>
        <mxCell id="iM5aHK-xHcqv_K-w8yEb-60" value="&lt;font style=&quot;font-size: 18px;&quot;&gt;&amp;lt;&amp;lt;include&amp;gt;&amp;gt;&lt;/font&gt;" style="text;html=1;align=center;verticalAlign=middle;resizable=0;points=[];autosize=1;strokeColor=none;fillColor=none;" parent="1" vertex="1">
          <mxGeometry x="420" y="270" width="120" height="40" as="geometry" />
        </mxCell>
        <mxCell id="iM5aHK-xHcqv_K-w8yEb-61" value="&lt;font style=&quot;font-size: 18px;&quot;&gt;&amp;lt;&amp;lt;include&amp;gt;&amp;gt;&lt;/font&gt;" style="text;html=1;align=center;verticalAlign=middle;resizable=0;points=[];autosize=1;strokeColor=none;fillColor=none;" parent="1" vertex="1">
          <mxGeometry x="425" y="430" width="120" height="40" as="geometry" />
        </mxCell>
        <mxCell id="iM5aHK-xHcqv_K-w8yEb-63" style="rounded=0;orthogonalLoop=1;jettySize=auto;html=1;entryX=1;entryY=0.5;entryDx=0;entryDy=0;strokeWidth=2;" parent="1" target="iM5aHK-xHcqv_K-w8yEb-31" edge="1">
          <mxGeometry relative="1" as="geometry">
            <mxPoint x="840" y="350" as="sourcePoint" />
          </mxGeometry>
        </mxCell>
        <mxCell id="iM5aHK-xHcqv_K-w8yEb-64" style="rounded=0;orthogonalLoop=1;jettySize=auto;html=1;entryX=1;entryY=0.5;entryDx=0;entryDy=0;strokeWidth=2;" parent="1" target="iM5aHK-xHcqv_K-w8yEb-32" edge="1">
          <mxGeometry relative="1" as="geometry">
            <mxPoint x="840" y="390" as="sourcePoint" />
          </mxGeometry>
        </mxCell>
        <mxCell id="iM5aHK-xHcqv_K-w8yEb-62" value="&lt;font style=&quot;font-size: 18px;&quot;&gt;Third Party Services&lt;/font&gt;" style="shape=umlActor;verticalLabelPosition=bottom;verticalAlign=top;html=1;outlineConnect=0;fontSize=18;fontStyle=1" parent="1" vertex="1">
          <mxGeometry x="860" y="280" width="80" height="160" as="geometry" />
        </mxCell>
        <mxCell id="ADDI52q2cOr9kJiZ27N4-3" value="&lt;font style=&quot;font-size: 18px;&quot;&gt;Login&lt;/font&gt;" style="ellipse;whiteSpace=wrap;html=1;fillColor=#fff2cc;strokeColor=#d6b656;fontSize=18;fontStyle=1" vertex="1" parent="1">
          <mxGeometry x="560" y="540" width="160" height="80" as="geometry" />
        </mxCell>
        <mxCell id="ADDI52q2cOr9kJiZ27N4-4" value="&lt;font style=&quot;font-size: 18px;&quot;&gt;Signup&lt;/font&gt;" style="ellipse;whiteSpace=wrap;html=1;fillColor=#fff2cc;strokeColor=#d6b656;fontSize=18;fontStyle=1" vertex="1" parent="1">
          <mxGeometry x="560" y="670" width="160" height="80" as="geometry" />
        </mxCell>
        <mxCell id="ADDI52q2cOr9kJiZ27N4-7" value="&lt;font style=&quot;font-size: 18px;&quot;&gt;&amp;lt;&amp;lt;include&amp;gt;&amp;gt;&lt;/font&gt;" style="text;html=1;align=center;verticalAlign=middle;resizable=0;points=[];autosize=1;strokeColor=none;fillColor=none;" vertex="1" parent="1">
          <mxGeometry x="425" y="550" width="120" height="40" as="geometry" />
        </mxCell>
        <mxCell id="ADDI52q2cOr9kJiZ27N4-8" value="&lt;font style=&quot;font-size: 18px;&quot;&gt;&amp;lt;&amp;lt;include&amp;gt;&amp;gt;&lt;/font&gt;" style="text;html=1;align=center;verticalAlign=middle;resizable=0;points=[];autosize=1;strokeColor=none;fillColor=none;" vertex="1" parent="1">
          <mxGeometry x="460" y="640" width="120" height="40" as="geometry" />
        </mxCell>
        <mxCell id="ADDI52q2cOr9kJiZ27N4-9" value="&lt;font style=&quot;font-size: 24px;&quot;&gt;System&lt;/font&gt;" style="text;html=1;align=center;verticalAlign=middle;whiteSpace=wrap;rounded=0;" vertex="1" parent="1">
          <mxGeometry x="410" y="10" width="140" height="30" as="geometry" />
        </mxCell>
      </root>
    </mxGraphModel>
  </diagram>
  <diagram id="_9lcPSEBbXC5kro8dHTd" name="Collaborative Diagram">
    <mxGraphModel dx="839" dy="508" grid="1" gridSize="10" guides="1" tooltips="1" connect="1" arrows="1" fold="1" page="1" pageScale="1" pageWidth="850" pageHeight="1100" math="0" shadow="0">
      <root>
        <mxCell id="0" />
        <mxCell id="1" parent="0" />
        <mxCell id="BXAli2-GTbUPLQSNs-_Y-2" style="edgeStyle=orthogonalEdgeStyle;rounded=0;orthogonalLoop=1;jettySize=auto;html=1;entryX=0;entryY=0.5;entryDx=0;entryDy=0;endArrow=none;endFill=0;strokeWidth=2;" edge="1" parent="1" source="XtdcNesn5_fafybRhuod-1" target="BXAli2-GTbUPLQSNs-_Y-1">
          <mxGeometry relative="1" as="geometry" />
        </mxCell>
        <mxCell id="XtdcNesn5_fafybRhuod-1" value="Customer" style="shape=umlActor;verticalLabelPosition=bottom;verticalAlign=top;html=1;outlineConnect=0;fontSize=16;fontStyle=1" vertex="1" parent="1">
          <mxGeometry x="80" y="180" width="40" height="80" as="geometry" />
        </mxCell>
        <mxCell id="BXAli2-GTbUPLQSNs-_Y-9" style="edgeStyle=orthogonalEdgeStyle;rounded=0;orthogonalLoop=1;jettySize=auto;html=1;entryX=0.5;entryY=0;entryDx=0;entryDy=0;strokeWidth=2;endArrow=none;endFill=0;" edge="1" parent="1" source="BXAli2-GTbUPLQSNs-_Y-1" target="BXAli2-GTbUPLQSNs-_Y-5">
          <mxGeometry relative="1" as="geometry" />
        </mxCell>
        <mxCell id="BXAli2-GTbUPLQSNs-_Y-1" value="&lt;font size=&quot;1&quot; style=&quot;&quot;&gt;&lt;b style=&quot;font-size: 14px;&quot;&gt;:Authentication&lt;/b&gt;&lt;/font&gt;" style="rounded=0;whiteSpace=wrap;html=1;fillColor=#dae8fc;strokeColor=#6c8ebf;" vertex="1" parent="1">
          <mxGeometry x="280" y="200" width="160" height="40" as="geometry" />
        </mxCell>
        <mxCell id="BXAli2-GTbUPLQSNs-_Y-3" value="&lt;font style=&quot;font-size: 14px;&quot;&gt;1. Login / Signup&lt;/font&gt;" style="text;html=1;align=center;verticalAlign=middle;whiteSpace=wrap;rounded=0;" vertex="1" parent="1">
          <mxGeometry x="140" y="219" width="120" height="40" as="geometry" />
        </mxCell>
        <mxCell id="BXAli2-GTbUPLQSNs-_Y-4" value="" style="endArrow=classic;html=1;rounded=0;strokeWidth=2;" edge="1" parent="1">
          <mxGeometry width="50" height="50" relative="1" as="geometry">
            <mxPoint x="180" y="259" as="sourcePoint" />
            <mxPoint x="220" y="259" as="targetPoint" />
          </mxGeometry>
        </mxCell>
        <mxCell id="BXAli2-GTbUPLQSNs-_Y-11" style="edgeStyle=orthogonalEdgeStyle;rounded=0;orthogonalLoop=1;jettySize=auto;html=1;strokeWidth=2;endArrow=none;endFill=0;" edge="1" parent="1" source="BXAli2-GTbUPLQSNs-_Y-5" target="BXAli2-GTbUPLQSNs-_Y-6">
          <mxGeometry relative="1" as="geometry" />
        </mxCell>
        <mxCell id="BXAli2-GTbUPLQSNs-_Y-5" value="&lt;span style=&quot;font-size: 14px;&quot;&gt;&lt;b&gt;:Product Catalog&lt;/b&gt;&lt;/span&gt;" style="rounded=0;whiteSpace=wrap;html=1;fillColor=#dae8fc;strokeColor=#6c8ebf;" vertex="1" parent="1">
          <mxGeometry x="280" y="360" width="160" height="40" as="geometry" />
        </mxCell>
        <mxCell id="BXAli2-GTbUPLQSNs-_Y-12" style="edgeStyle=orthogonalEdgeStyle;rounded=0;orthogonalLoop=1;jettySize=auto;html=1;entryX=0.5;entryY=1;entryDx=0;entryDy=0;strokeWidth=2;endArrow=none;endFill=0;" edge="1" parent="1" source="BXAli2-GTbUPLQSNs-_Y-6" target="BXAli2-GTbUPLQSNs-_Y-5">
          <mxGeometry relative="1" as="geometry">
            <Array as="points">
              <mxPoint x="640" y="480" />
              <mxPoint x="360" y="480" />
            </Array>
          </mxGeometry>
        </mxCell>
        <mxCell id="BXAli2-GTbUPLQSNs-_Y-13" style="edgeStyle=orthogonalEdgeStyle;rounded=0;orthogonalLoop=1;jettySize=auto;html=1;entryX=0.5;entryY=1;entryDx=0;entryDy=0;strokeWidth=2;endArrow=none;endFill=0;" edge="1" parent="1" source="BXAli2-GTbUPLQSNs-_Y-6" target="BXAli2-GTbUPLQSNs-_Y-7">
          <mxGeometry relative="1" as="geometry" />
        </mxCell>
        <mxCell id="BXAli2-GTbUPLQSNs-_Y-6" value="&lt;span style=&quot;font-size: 14px;&quot;&gt;&lt;b&gt;:Shopping Cart&lt;/b&gt;&lt;/span&gt;" style="rounded=0;whiteSpace=wrap;html=1;fillColor=#dae8fc;strokeColor=#6c8ebf;" vertex="1" parent="1">
          <mxGeometry x="560" y="360" width="160" height="40" as="geometry" />
        </mxCell>
        <mxCell id="BXAli2-GTbUPLQSNs-_Y-14" style="edgeStyle=orthogonalEdgeStyle;rounded=0;orthogonalLoop=1;jettySize=auto;html=1;entryX=0.5;entryY=1;entryDx=0;entryDy=0;strokeWidth=2;endArrow=none;endFill=0;" edge="1" parent="1" source="BXAli2-GTbUPLQSNs-_Y-7" target="BXAli2-GTbUPLQSNs-_Y-8">
          <mxGeometry relative="1" as="geometry" />
        </mxCell>
        <mxCell id="BXAli2-GTbUPLQSNs-_Y-7" value="&lt;span style=&quot;font-size: 14px;&quot;&gt;&lt;b&gt;:Checkout&lt;/b&gt;&lt;/span&gt;" style="rounded=0;whiteSpace=wrap;html=1;fillColor=#dae8fc;strokeColor=#6c8ebf;" vertex="1" parent="1">
          <mxGeometry x="560" y="200" width="160" height="40" as="geometry" />
        </mxCell>
        <mxCell id="BXAli2-GTbUPLQSNs-_Y-8" value="&lt;span style=&quot;font-size: 14px;&quot;&gt;&lt;b&gt;:Order History&lt;/b&gt;&lt;/span&gt;" style="rounded=0;whiteSpace=wrap;html=1;fillColor=#dae8fc;strokeColor=#6c8ebf;" vertex="1" parent="1">
          <mxGeometry x="560" y="80" width="160" height="40" as="geometry" />
        </mxCell>
        <mxCell id="BXAli2-GTbUPLQSNs-_Y-15" style="edgeStyle=orthogonalEdgeStyle;rounded=0;orthogonalLoop=1;jettySize=auto;html=1;entryX=0.5;entryY=0;entryDx=0;entryDy=0;entryPerimeter=0;strokeWidth=2;endArrow=none;endFill=0;" edge="1" parent="1" source="BXAli2-GTbUPLQSNs-_Y-8" target="XtdcNesn5_fafybRhuod-1">
          <mxGeometry relative="1" as="geometry" />
        </mxCell>
        <mxCell id="BXAli2-GTbUPLQSNs-_Y-17" value="&lt;font style=&quot;font-size: 14px;&quot;&gt;2. Browse Product&lt;/font&gt;" style="text;html=1;align=center;verticalAlign=middle;whiteSpace=wrap;rounded=0;" vertex="1" parent="1">
          <mxGeometry x="365" y="260" width="120" height="40" as="geometry" />
        </mxCell>
        <mxCell id="BXAli2-GTbUPLQSNs-_Y-19" value="" style="endArrow=classic;html=1;rounded=0;strokeWidth=2;" edge="1" parent="1">
          <mxGeometry width="50" height="50" relative="1" as="geometry">
            <mxPoint x="340" y="269" as="sourcePoint" />
            <mxPoint x="340" y="310" as="targetPoint" />
          </mxGeometry>
        </mxCell>
        <mxCell id="BXAli2-GTbUPLQSNs-_Y-20" value="&lt;font style=&quot;font-size: 14px;&quot;&gt;4. Add to Cart&lt;/font&gt;" style="text;html=1;align=center;verticalAlign=middle;whiteSpace=wrap;rounded=0;" vertex="1" parent="1">
          <mxGeometry x="440" y="340" width="120" height="40" as="geometry" />
        </mxCell>
        <mxCell id="BXAli2-GTbUPLQSNs-_Y-21" value="" style="endArrow=classic;html=1;rounded=0;strokeWidth=2;" edge="1" parent="1">
          <mxGeometry width="50" height="50" relative="1" as="geometry">
            <mxPoint x="480" y="399" as="sourcePoint" />
            <mxPoint x="520" y="399" as="targetPoint" />
          </mxGeometry>
        </mxCell>
        <mxCell id="BXAli2-GTbUPLQSNs-_Y-22" value="&lt;font style=&quot;font-size: 14px;&quot;&gt;5. Continue Shopping&lt;/font&gt;" style="text;html=1;align=center;verticalAlign=middle;whiteSpace=wrap;rounded=0;" vertex="1" parent="1">
          <mxGeometry x="440" y="440" width="120" height="40" as="geometry" />
        </mxCell>
        <mxCell id="BXAli2-GTbUPLQSNs-_Y-23" value="" style="endArrow=none;html=1;rounded=0;strokeWidth=2;startArrow=classic;startFill=1;endFill=0;" edge="1" parent="1">
          <mxGeometry width="50" height="50" relative="1" as="geometry">
            <mxPoint x="480" y="500" as="sourcePoint" />
            <mxPoint x="520" y="500" as="targetPoint" />
          </mxGeometry>
        </mxCell>
        <mxCell id="BXAli2-GTbUPLQSNs-_Y-24" value="&lt;font style=&quot;font-size: 14px;&quot;&gt;6. Place Order&lt;/font&gt;" style="text;html=1;align=center;verticalAlign=middle;whiteSpace=wrap;rounded=0;" vertex="1" parent="1">
          <mxGeometry x="640" y="290" width="120" height="40" as="geometry" />
        </mxCell>
        <mxCell id="BXAli2-GTbUPLQSNs-_Y-25" value="" style="endArrow=none;html=1;rounded=0;strokeWidth=2;startArrow=classic;startFill=1;endFill=0;" edge="1" parent="1">
          <mxGeometry width="50" height="50" relative="1" as="geometry">
            <mxPoint x="620" y="290" as="sourcePoint" />
            <mxPoint x="620" y="331" as="targetPoint" />
          </mxGeometry>
        </mxCell>
        <mxCell id="BXAli2-GTbUPLQSNs-_Y-26" value="&lt;font style=&quot;font-size: 14px;&quot;&gt;7. Shipping Detail&lt;/font&gt;" style="text;html=1;align=center;verticalAlign=middle;whiteSpace=wrap;rounded=0;" vertex="1" parent="1">
          <mxGeometry x="650" y="120" width="120" height="40" as="geometry" />
        </mxCell>
        <mxCell id="BXAli2-GTbUPLQSNs-_Y-27" value="" style="endArrow=none;html=1;rounded=0;strokeWidth=2;startArrow=classic;startFill=1;endFill=0;" edge="1" parent="1">
          <mxGeometry width="50" height="50" relative="1" as="geometry">
            <mxPoint x="620" y="139" as="sourcePoint" />
            <mxPoint x="620" y="180" as="targetPoint" />
          </mxGeometry>
        </mxCell>
        <mxCell id="BXAli2-GTbUPLQSNs-_Y-28" value="&lt;font style=&quot;font-size: 14px;&quot;&gt;7. Display Order Detail&lt;/font&gt;" style="text;html=1;align=center;verticalAlign=middle;whiteSpace=wrap;rounded=0;" vertex="1" parent="1">
          <mxGeometry x="270" y="60" width="120" height="40" as="geometry" />
        </mxCell>
        <mxCell id="BXAli2-GTbUPLQSNs-_Y-29" value="" style="endArrow=none;html=1;rounded=0;strokeWidth=2;startArrow=classic;startFill=1;endFill=0;" edge="1" parent="1">
          <mxGeometry width="50" height="50" relative="1" as="geometry">
            <mxPoint x="310" y="119" as="sourcePoint" />
            <mxPoint x="350" y="119" as="targetPoint" />
          </mxGeometry>
        </mxCell>
        <mxCell id="BXAli2-GTbUPLQSNs-_Y-30" value="&lt;font style=&quot;font-size: 14px;&quot;&gt;3. Search Product&lt;/font&gt;" style="text;html=1;align=center;verticalAlign=middle;whiteSpace=wrap;rounded=0;" vertex="1" parent="1">
          <mxGeometry x="365" y="300" width="120" height="40" as="geometry" />
        </mxCell>
        <mxCell id="BXAli2-GTbUPLQSNs-_Y-31" value="&lt;font style=&quot;font-size: 14px;&quot;&gt;8. Make Payment&lt;/font&gt;" style="text;html=1;align=center;verticalAlign=middle;whiteSpace=wrap;rounded=0;" vertex="1" parent="1">
          <mxGeometry x="650" y="160" width="120" height="40" as="geometry" />
        </mxCell>
      </root>
    </mxGraphModel>
  </diagram>
  <diagram id="dRUQt2i570TiMKOJudQU" name="Sequence Diagram">
    <mxGraphModel dx="839" dy="508" grid="1" gridSize="10" guides="1" tooltips="1" connect="1" arrows="1" fold="1" page="1" pageScale="1" pageWidth="850" pageHeight="1100" math="0" shadow="0">
      <root>
        <mxCell id="0" />
        <mxCell id="1" parent="0" />
        <mxCell id="eURw3PDDnAFZC3ohzvrW-1" value="&lt;font style=&quot;font-size: 14px;&quot;&gt;&lt;b&gt;Customer&lt;/b&gt;&lt;/font&gt;" style="shape=umlActor;verticalLabelPosition=bottom;verticalAlign=top;html=1;outlineConnect=0;fillColor=#fff2cc;strokeColor=#d6b656;" vertex="1" parent="1">
          <mxGeometry x="60" y="40" width="40" height="50" as="geometry" />
        </mxCell>
        <mxCell id="SL1ulzgKbVRl-Ow2xuel-1" value="&lt;font style=&quot;font-size: 18px;&quot;&gt;&lt;b&gt;:Website&lt;/b&gt;&lt;/font&gt;" style="rounded=0;whiteSpace=wrap;html=1;fillColor=#dae8fc;strokeColor=#6c8ebf;" vertex="1" parent="1">
          <mxGeometry x="200" y="60" width="160" height="40" as="geometry" />
        </mxCell>
        <mxCell id="HkY_1A-PJ5904kYLm884-1" value="&lt;font style=&quot;font-size: 18px;&quot;&gt;&lt;b&gt;:Server&lt;/b&gt;&lt;/font&gt;" style="rounded=0;whiteSpace=wrap;html=1;fillColor=#e1d5e7;strokeColor=#9673a6;" vertex="1" parent="1">
          <mxGeometry x="400" y="60" width="160" height="40" as="geometry" />
        </mxCell>
        <mxCell id="HkY_1A-PJ5904kYLm884-2" value="" style="endArrow=none;dashed=1;html=1;rounded=0;fontSize=12;strokeWidth=2;" edge="1" parent="1" source="HkY_1A-PJ5904kYLm884-47">
          <mxGeometry width="50" height="50" relative="1" as="geometry">
            <mxPoint x="80" y="640" as="sourcePoint" />
            <mxPoint x="80" y="120" as="targetPoint" />
          </mxGeometry>
        </mxCell>
        <mxCell id="HkY_1A-PJ5904kYLm884-3" value="" style="endArrow=none;dashed=1;html=1;rounded=0;fontSize=12;strokeWidth=2;" edge="1" parent="1" source="HkY_1A-PJ5904kYLm884-48">
          <mxGeometry width="50" height="50" relative="1" as="geometry">
            <mxPoint x="280" y="640" as="sourcePoint" />
            <mxPoint x="279.5" y="100" as="targetPoint" />
          </mxGeometry>
        </mxCell>
        <mxCell id="HkY_1A-PJ5904kYLm884-4" value="" style="endArrow=none;dashed=1;html=1;rounded=0;fontSize=12;strokeWidth=2;" edge="1" parent="1" source="HkY_1A-PJ5904kYLm884-50">
          <mxGeometry width="50" height="50" relative="1" as="geometry">
            <mxPoint x="480" y="640" as="sourcePoint" />
            <mxPoint x="479.5" y="100" as="targetPoint" />
          </mxGeometry>
        </mxCell>
        <mxCell id="HkY_1A-PJ5904kYLm884-5" value="" style="endArrow=classic;html=1;rounded=0;entryX=0.5;entryY=0.042;entryDx=0;entryDy=0;entryPerimeter=0;" edge="1" parent="1">
          <mxGeometry width="50" height="50" relative="1" as="geometry">
            <mxPoint x="75" y="160" as="sourcePoint" />
            <mxPoint x="275" y="160.15999999999997" as="targetPoint" />
          </mxGeometry>
        </mxCell>
        <mxCell id="HkY_1A-PJ5904kYLm884-6" value="&lt;font style=&quot;font-size: 15px;&quot;&gt;Signup&lt;/font&gt;" style="edgeLabel;html=1;align=center;verticalAlign=middle;resizable=0;points=[];" vertex="1" connectable="0" parent="HkY_1A-PJ5904kYLm884-5">
          <mxGeometry x="-0.27" relative="1" as="geometry">
            <mxPoint x="27" y="-20" as="offset" />
          </mxGeometry>
        </mxCell>
        <mxCell id="HkY_1A-PJ5904kYLm884-7" value="" style="endArrow=classic;html=1;rounded=0;" edge="1" parent="1" target="HkY_1A-PJ5904kYLm884-50">
          <mxGeometry width="50" height="50" relative="1" as="geometry">
            <mxPoint x="280" y="180" as="sourcePoint" />
            <mxPoint x="480" y="180" as="targetPoint" />
          </mxGeometry>
        </mxCell>
        <mxCell id="HkY_1A-PJ5904kYLm884-8" value="&lt;font style=&quot;font-size: 15px;&quot;&gt;Store User Information&lt;/font&gt;" style="edgeLabel;html=1;align=center;verticalAlign=middle;resizable=0;points=[];" vertex="1" connectable="0" parent="HkY_1A-PJ5904kYLm884-7">
          <mxGeometry x="-0.27" relative="1" as="geometry">
            <mxPoint x="27" y="-20" as="offset" />
          </mxGeometry>
        </mxCell>
        <mxCell id="HkY_1A-PJ5904kYLm884-9" value="" style="endArrow=classic;html=1;rounded=0;" edge="1" parent="1">
          <mxGeometry width="50" height="50" relative="1" as="geometry">
            <mxPoint x="75" y="200" as="sourcePoint" />
            <mxPoint x="275" y="200" as="targetPoint" />
          </mxGeometry>
        </mxCell>
        <mxCell id="HkY_1A-PJ5904kYLm884-10" value="&lt;font style=&quot;font-size: 15px;&quot;&gt;Login&lt;/font&gt;" style="edgeLabel;html=1;align=center;verticalAlign=middle;resizable=0;points=[];" vertex="1" connectable="0" parent="HkY_1A-PJ5904kYLm884-9">
          <mxGeometry x="-0.27" relative="1" as="geometry">
            <mxPoint x="27" y="-20" as="offset" />
          </mxGeometry>
        </mxCell>
        <mxCell id="HkY_1A-PJ5904kYLm884-11" value="" style="endArrow=classic;html=1;rounded=0;" edge="1" parent="1">
          <mxGeometry width="50" height="50" relative="1" as="geometry">
            <mxPoint x="275" y="220" as="sourcePoint" />
            <mxPoint x="475" y="220" as="targetPoint" />
          </mxGeometry>
        </mxCell>
        <mxCell id="HkY_1A-PJ5904kYLm884-12" value="&lt;font style=&quot;font-size: 15px;&quot;&gt;Authentication&lt;/font&gt;" style="edgeLabel;html=1;align=center;verticalAlign=middle;resizable=0;points=[];" vertex="1" connectable="0" parent="HkY_1A-PJ5904kYLm884-11">
          <mxGeometry x="-0.27" relative="1" as="geometry">
            <mxPoint x="27" y="-20" as="offset" />
          </mxGeometry>
        </mxCell>
        <mxCell id="HkY_1A-PJ5904kYLm884-13" value="" style="endArrow=none;html=1;rounded=0;startArrow=classic;startFill=1;endFill=0;dashed=1;dashPattern=8 8;" edge="1" parent="1">
          <mxGeometry width="50" height="50" relative="1" as="geometry">
            <mxPoint x="285" y="260" as="sourcePoint" />
            <mxPoint x="485" y="260" as="targetPoint" />
          </mxGeometry>
        </mxCell>
        <mxCell id="HkY_1A-PJ5904kYLm884-14" value="&lt;font style=&quot;font-size: 15px;&quot;&gt;JWT Token&lt;/font&gt;" style="edgeLabel;html=1;align=center;verticalAlign=middle;resizable=0;points=[];" vertex="1" connectable="0" parent="HkY_1A-PJ5904kYLm884-13">
          <mxGeometry x="-0.27" relative="1" as="geometry">
            <mxPoint x="27" y="-20" as="offset" />
          </mxGeometry>
        </mxCell>
        <mxCell id="HkY_1A-PJ5904kYLm884-15" value="" style="endArrow=none;html=1;rounded=0;startArrow=classic;startFill=1;endFill=0;dashed=1;dashPattern=8 8;" edge="1" parent="1">
          <mxGeometry width="50" height="50" relative="1" as="geometry">
            <mxPoint x="85" y="280" as="sourcePoint" />
            <mxPoint x="285" y="280" as="targetPoint" />
          </mxGeometry>
        </mxCell>
        <mxCell id="HkY_1A-PJ5904kYLm884-16" value="&lt;font style=&quot;font-size: 15px;&quot;&gt;Login Success&lt;/font&gt;" style="edgeLabel;html=1;align=center;verticalAlign=middle;resizable=0;points=[];" vertex="1" connectable="0" parent="HkY_1A-PJ5904kYLm884-15">
          <mxGeometry x="-0.27" relative="1" as="geometry">
            <mxPoint x="27" y="-20" as="offset" />
          </mxGeometry>
        </mxCell>
        <mxCell id="HkY_1A-PJ5904kYLm884-17" value="" style="endArrow=classic;html=1;rounded=0;" edge="1" parent="1">
          <mxGeometry width="50" height="50" relative="1" as="geometry">
            <mxPoint x="75" y="320" as="sourcePoint" />
            <mxPoint x="275" y="320" as="targetPoint" />
          </mxGeometry>
        </mxCell>
        <mxCell id="HkY_1A-PJ5904kYLm884-18" value="&lt;font style=&quot;font-size: 15px;&quot;&gt;Search Product&lt;/font&gt;" style="edgeLabel;html=1;align=center;verticalAlign=middle;resizable=0;points=[];" vertex="1" connectable="0" parent="HkY_1A-PJ5904kYLm884-17">
          <mxGeometry x="-0.27" relative="1" as="geometry">
            <mxPoint x="27" y="-20" as="offset" />
          </mxGeometry>
        </mxCell>
        <mxCell id="HkY_1A-PJ5904kYLm884-19" value="" style="endArrow=classic;html=1;rounded=0;" edge="1" parent="1">
          <mxGeometry width="50" height="50" relative="1" as="geometry">
            <mxPoint x="275" y="340" as="sourcePoint" />
            <mxPoint x="475" y="340" as="targetPoint" />
          </mxGeometry>
        </mxCell>
        <mxCell id="HkY_1A-PJ5904kYLm884-20" value="&lt;font style=&quot;font-size: 15px;&quot;&gt;Query &amp;amp; Filtering Product&lt;/font&gt;" style="edgeLabel;html=1;align=center;verticalAlign=middle;resizable=0;points=[];" vertex="1" connectable="0" parent="HkY_1A-PJ5904kYLm884-19">
          <mxGeometry x="-0.27" relative="1" as="geometry">
            <mxPoint x="27" y="-20" as="offset" />
          </mxGeometry>
        </mxCell>
        <mxCell id="HkY_1A-PJ5904kYLm884-21" value="" style="endArrow=classic;html=1;rounded=0;startArrow=none;startFill=0;endFill=1;" edge="1" parent="1">
          <mxGeometry width="50" height="50" relative="1" as="geometry">
            <mxPoint x="75" y="480" as="sourcePoint" />
            <mxPoint x="275" y="480" as="targetPoint" />
          </mxGeometry>
        </mxCell>
        <mxCell id="HkY_1A-PJ5904kYLm884-22" value="&lt;font style=&quot;font-size: 15px;&quot;&gt;Checkout&lt;/font&gt;" style="edgeLabel;html=1;align=center;verticalAlign=middle;resizable=0;points=[];" vertex="1" connectable="0" parent="HkY_1A-PJ5904kYLm884-21">
          <mxGeometry x="-0.27" relative="1" as="geometry">
            <mxPoint x="27" y="-20" as="offset" />
          </mxGeometry>
        </mxCell>
        <mxCell id="HkY_1A-PJ5904kYLm884-23" value="" style="endArrow=none;html=1;rounded=0;startArrow=classic;startFill=1;endFill=0;dashed=1;dashPattern=8 8;" edge="1" parent="1">
          <mxGeometry width="50" height="50" relative="1" as="geometry">
            <mxPoint x="85" y="400" as="sourcePoint" />
            <mxPoint x="285" y="400" as="targetPoint" />
          </mxGeometry>
        </mxCell>
        <mxCell id="HkY_1A-PJ5904kYLm884-24" value="&lt;font style=&quot;font-size: 15px;&quot;&gt;Display search result&lt;/font&gt;" style="edgeLabel;html=1;align=center;verticalAlign=middle;resizable=0;points=[];" vertex="1" connectable="0" parent="HkY_1A-PJ5904kYLm884-23">
          <mxGeometry x="-0.27" relative="1" as="geometry">
            <mxPoint x="27" y="-20" as="offset" />
          </mxGeometry>
        </mxCell>
        <mxCell id="HkY_1A-PJ5904kYLm884-25" value="" style="endArrow=classic;html=1;rounded=0;" edge="1" parent="1">
          <mxGeometry width="50" height="50" relative="1" as="geometry">
            <mxPoint x="75" y="440" as="sourcePoint" />
            <mxPoint x="275" y="440" as="targetPoint" />
          </mxGeometry>
        </mxCell>
        <mxCell id="HkY_1A-PJ5904kYLm884-26" value="&lt;font style=&quot;font-size: 15px;&quot;&gt;Add to Cart&lt;/font&gt;" style="edgeLabel;html=1;align=center;verticalAlign=middle;resizable=0;points=[];" vertex="1" connectable="0" parent="HkY_1A-PJ5904kYLm884-25">
          <mxGeometry x="-0.27" relative="1" as="geometry">
            <mxPoint x="27" y="-20" as="offset" />
          </mxGeometry>
        </mxCell>
        <mxCell id="HkY_1A-PJ5904kYLm884-32" value="" style="endArrow=none;html=1;rounded=0;startArrow=classic;startFill=1;endFill=0;dashed=1;dashPattern=8 8;" edge="1" parent="1">
          <mxGeometry width="50" height="50" relative="1" as="geometry">
            <mxPoint x="285" y="379.5" as="sourcePoint" />
            <mxPoint x="485" y="379.5" as="targetPoint" />
          </mxGeometry>
        </mxCell>
        <mxCell id="HkY_1A-PJ5904kYLm884-33" value="&lt;font style=&quot;font-size: 15px;&quot;&gt;Return Filtered Result&lt;/font&gt;" style="edgeLabel;html=1;align=center;verticalAlign=middle;resizable=0;points=[];" vertex="1" connectable="0" parent="HkY_1A-PJ5904kYLm884-32">
          <mxGeometry x="-0.27" relative="1" as="geometry">
            <mxPoint x="27" y="-20" as="offset" />
          </mxGeometry>
        </mxCell>
        <mxCell id="HkY_1A-PJ5904kYLm884-34" value="" style="endArrow=classic;html=1;rounded=0;startArrow=none;startFill=0;endFill=1;" edge="1" parent="1">
          <mxGeometry width="50" height="50" relative="1" as="geometry">
            <mxPoint x="275" y="460" as="sourcePoint" />
            <mxPoint x="475" y="460" as="targetPoint" />
          </mxGeometry>
        </mxCell>
        <mxCell id="HkY_1A-PJ5904kYLm884-35" value="&lt;font style=&quot;font-size: 15px;&quot;&gt;Store Cart Information&lt;/font&gt;" style="edgeLabel;html=1;align=center;verticalAlign=middle;resizable=0;points=[];" vertex="1" connectable="0" parent="HkY_1A-PJ5904kYLm884-34">
          <mxGeometry x="-0.27" relative="1" as="geometry">
            <mxPoint x="27" y="-20" as="offset" />
          </mxGeometry>
        </mxCell>
        <mxCell id="HkY_1A-PJ5904kYLm884-38" value="" style="endArrow=classic;html=1;rounded=0;startArrow=none;startFill=0;endFill=1;" edge="1" parent="1">
          <mxGeometry width="50" height="50" relative="1" as="geometry">
            <mxPoint x="275" y="500" as="sourcePoint" />
            <mxPoint x="475" y="500" as="targetPoint" />
          </mxGeometry>
        </mxCell>
        <mxCell id="HkY_1A-PJ5904kYLm884-39" value="&lt;font style=&quot;font-size: 15px;&quot;&gt;Verify Order&lt;/font&gt;" style="edgeLabel;html=1;align=center;verticalAlign=middle;resizable=0;points=[];" vertex="1" connectable="0" parent="HkY_1A-PJ5904kYLm884-38">
          <mxGeometry x="-0.27" relative="1" as="geometry">
            <mxPoint x="27" y="-20" as="offset" />
          </mxGeometry>
        </mxCell>
        <mxCell id="HkY_1A-PJ5904kYLm884-40" value="" style="endArrow=none;html=1;rounded=0;startArrow=classic;startFill=1;endFill=0;dashed=1;dashPattern=8 8;" edge="1" parent="1">
          <mxGeometry width="50" height="50" relative="1" as="geometry">
            <mxPoint x="85" y="560" as="sourcePoint" />
            <mxPoint x="285" y="560" as="targetPoint" />
          </mxGeometry>
        </mxCell>
        <mxCell id="HkY_1A-PJ5904kYLm884-41" value="&lt;font style=&quot;font-size: 15px;&quot;&gt;Display Order Confirmation&lt;/font&gt;" style="edgeLabel;html=1;align=center;verticalAlign=middle;resizable=0;points=[];" vertex="1" connectable="0" parent="HkY_1A-PJ5904kYLm884-40">
          <mxGeometry x="-0.27" relative="1" as="geometry">
            <mxPoint x="27" y="-20" as="offset" />
          </mxGeometry>
        </mxCell>
        <mxCell id="HkY_1A-PJ5904kYLm884-42" value="" style="endArrow=classic;html=1;rounded=0;startArrow=none;startFill=0;endFill=1;" edge="1" parent="1">
          <mxGeometry width="50" height="50" relative="1" as="geometry">
            <mxPoint x="275" y="540" as="sourcePoint" />
            <mxPoint x="475" y="540" as="targetPoint" />
          </mxGeometry>
        </mxCell>
        <mxCell id="HkY_1A-PJ5904kYLm884-43" value="&lt;font style=&quot;font-size: 15px;&quot;&gt;Store Order Information&lt;/font&gt;" style="edgeLabel;html=1;align=center;verticalAlign=middle;resizable=0;points=[];" vertex="1" connectable="0" parent="HkY_1A-PJ5904kYLm884-42">
          <mxGeometry x="-0.27" relative="1" as="geometry">
            <mxPoint x="27" y="-20" as="offset" />
          </mxGeometry>
        </mxCell>
        <mxCell id="HkY_1A-PJ5904kYLm884-44" value="" style="endArrow=none;html=1;rounded=0;startArrow=classic;startFill=1;endFill=0;dashed=1;dashPattern=8 8;" edge="1" parent="1">
          <mxGeometry width="50" height="50" relative="1" as="geometry">
            <mxPoint x="85" y="600" as="sourcePoint" />
            <mxPoint x="285" y="600" as="targetPoint" />
          </mxGeometry>
        </mxCell>
        <mxCell id="HkY_1A-PJ5904kYLm884-45" value="&lt;font style=&quot;font-size: 15px;&quot;&gt;Display Order History&lt;/font&gt;" style="edgeLabel;html=1;align=center;verticalAlign=middle;resizable=0;points=[];" vertex="1" connectable="0" parent="HkY_1A-PJ5904kYLm884-44">
          <mxGeometry x="-0.27" relative="1" as="geometry">
            <mxPoint x="27" y="-20" as="offset" />
          </mxGeometry>
        </mxCell>
        <mxCell id="HkY_1A-PJ5904kYLm884-46" value="" style="endArrow=none;dashed=1;html=1;rounded=0;fontSize=12;strokeWidth=2;" edge="1" parent="1" target="HkY_1A-PJ5904kYLm884-47">
          <mxGeometry width="50" height="50" relative="1" as="geometry">
            <mxPoint x="80" y="640" as="sourcePoint" />
            <mxPoint x="80" y="120" as="targetPoint" />
          </mxGeometry>
        </mxCell>
        <mxCell id="HkY_1A-PJ5904kYLm884-47" value="" style="html=1;points=[[0,0,0,0,5],[0,1,0,0,-5],[1,0,0,0,5],[1,1,0,0,-5]];perimeter=orthogonalPerimeter;outlineConnect=0;targetShapes=umlLifeline;portConstraint=eastwest;newEdgeStyle={&quot;curved&quot;:0,&quot;rounded&quot;:0};fillColor=#fff2cc;strokeColor=#d6b656;" vertex="1" parent="1">
          <mxGeometry x="75" y="140" width="10" height="480" as="geometry" />
        </mxCell>
        <mxCell id="HkY_1A-PJ5904kYLm884-49" value="" style="endArrow=none;dashed=1;html=1;rounded=0;fontSize=12;strokeWidth=2;" edge="1" parent="1" target="HkY_1A-PJ5904kYLm884-48">
          <mxGeometry width="50" height="50" relative="1" as="geometry">
            <mxPoint x="280" y="640" as="sourcePoint" />
            <mxPoint x="279.5" y="100" as="targetPoint" />
          </mxGeometry>
        </mxCell>
        <mxCell id="HkY_1A-PJ5904kYLm884-48" value="" style="html=1;points=[[0,0,0,0,5],[0,1,0,0,-5],[1,0,0,0,5],[1,1,0,0,-5]];perimeter=orthogonalPerimeter;outlineConnect=0;targetShapes=umlLifeline;portConstraint=eastwest;newEdgeStyle={&quot;curved&quot;:0,&quot;rounded&quot;:0};fillColor=#dae8fc;strokeColor=#6c8ebf;" vertex="1" parent="1">
          <mxGeometry x="275" y="140" width="10" height="480" as="geometry" />
        </mxCell>
        <mxCell id="HkY_1A-PJ5904kYLm884-51" value="" style="endArrow=none;dashed=1;html=1;rounded=0;fontSize=12;strokeWidth=2;" edge="1" parent="1" target="HkY_1A-PJ5904kYLm884-50">
          <mxGeometry width="50" height="50" relative="1" as="geometry">
            <mxPoint x="480" y="640" as="sourcePoint" />
            <mxPoint x="479.5" y="100" as="targetPoint" />
          </mxGeometry>
        </mxCell>
        <mxCell id="HkY_1A-PJ5904kYLm884-50" value="" style="html=1;points=[[0,0,0,0,5],[0,1,0,0,-5],[1,0,0,0,5],[1,1,0,0,-5]];perimeter=orthogonalPerimeter;outlineConnect=0;targetShapes=umlLifeline;portConstraint=eastwest;newEdgeStyle={&quot;curved&quot;:0,&quot;rounded&quot;:0};fillColor=#e1d5e7;strokeColor=#9673a6;" vertex="1" parent="1">
          <mxGeometry x="475" y="160" width="10" height="400" as="geometry" />
        </mxCell>
      </root>
    </mxGraphModel>
  </diagram>
  <diagram id="BeM4ouTpUYOPg5P78-er" name="Class Diagram">
    <mxGraphModel dx="1199" dy="726" grid="1" gridSize="10" guides="1" tooltips="1" connect="1" arrows="1" fold="1" page="1" pageScale="1" pageWidth="850" pageHeight="1100" math="0" shadow="0">
      <root>
        <mxCell id="0" />
        <mxCell id="1" parent="0" />
        <mxCell id="GmOgpyumPwBc6sqjCVu6-44" style="edgeStyle=orthogonalEdgeStyle;rounded=0;orthogonalLoop=1;jettySize=auto;html=1;entryX=0.5;entryY=1;entryDx=0;entryDy=0;endArrow=none;endFill=0;strokeWidth=2;" edge="1" parent="1" source="GmOgpyumPwBc6sqjCVu6-12" target="GmOgpyumPwBc6sqjCVu6-20">
          <mxGeometry relative="1" as="geometry" />
        </mxCell>
        <mxCell id="GmOgpyumPwBc6sqjCVu6-50" style="edgeStyle=orthogonalEdgeStyle;rounded=0;orthogonalLoop=1;jettySize=auto;html=1;entryX=0;entryY=0.25;entryDx=0;entryDy=0;strokeWidth=2;endArrow=none;endFill=0;" edge="1" parent="1" source="GmOgpyumPwBc6sqjCVu6-12" target="GmOgpyumPwBc6sqjCVu6-18">
          <mxGeometry relative="1" as="geometry" />
        </mxCell>
        <mxCell id="GmOgpyumPwBc6sqjCVu6-12" value="&lt;p style=&quot;margin:0px;margin-top:4px;text-align:center;&quot;&gt;&lt;span style=&quot;font-size: 18px;&quot;&gt;&lt;b&gt;User&lt;/b&gt;&lt;/span&gt;&lt;/p&gt;&lt;hr size=&quot;1&quot; style=&quot;border-style:solid;&quot;&gt;&lt;p style=&quot;margin: 0px 0px 0px 4px; font-size: 14px;&quot;&gt;&lt;span style=&quot;font-size: 13px;&quot;&gt;-&lt;/span&gt;&lt;font style=&quot;font-size: 14px;&quot;&gt; user_id: int (PK)&lt;/font&gt;&lt;/p&gt;&lt;p style=&quot;margin: 0px 0px 0px 4px; font-size: 14px;&quot;&gt;&lt;font style=&quot;font-size: 14px;&quot;&gt;- name: string&lt;/font&gt;&lt;/p&gt;&lt;p style=&quot;margin: 0px 0px 0px 4px; font-size: 14px;&quot;&gt;&lt;font style=&quot;font-size: 14px;&quot;&gt;- email: string&lt;/font&gt;&lt;/p&gt;&lt;p style=&quot;margin: 0px 0px 0px 4px; font-size: 14px;&quot;&gt;&lt;font style=&quot;font-size: 14px;&quot;&gt;- address: string&lt;/font&gt;&lt;/p&gt;&lt;p style=&quot;margin: 0px 0px 0px 4px; font-size: 14px;&quot;&gt;&lt;font style=&quot;font-size: 14px;&quot;&gt;- phone_number: string&lt;/font&gt;&lt;/p&gt;&lt;p style=&quot;margin: 0px 0px 0px 4px; font-size: 14px;&quot;&gt;&lt;font style=&quot;font-size: 14px;&quot;&gt;- created_at: datetime&lt;/font&gt;&lt;/p&gt;&lt;hr size=&quot;1&quot; style=&quot;border-style:solid;&quot;&gt;&lt;p style=&quot;margin: 0px 0px 0px 4px; font-size: 14px;&quot;&gt;&lt;font style=&quot;font-size: 14px;&quot;&gt;+ get_user()&lt;/font&gt;&lt;/p&gt;&lt;p style=&quot;margin: 0px 0px 0px 4px; font-size: 14px;&quot;&gt;&lt;font style=&quot;font-size: 14px;&quot;&gt;+ login()&lt;/font&gt;&lt;/p&gt;&lt;p style=&quot;margin: 0px 0px 0px 4px; font-size: 14px;&quot;&gt;&lt;font style=&quot;font-size: 14px;&quot;&gt;+ logout()&lt;/font&gt;&lt;/p&gt;&lt;p style=&quot;margin: 0px 0px 0px 4px; font-size: 14px;&quot;&gt;&lt;font style=&quot;font-size: 14px;&quot;&gt;+ signup()&lt;/font&gt;&lt;/p&gt;&lt;p style=&quot;margin: 0px 0px 0px 4px; font-size: 14px;&quot;&gt;&lt;font style=&quot;font-size: 14px;&quot;&gt;+ delete_account()&lt;/font&gt;&lt;/p&gt;&lt;p style=&quot;margin: 0px 0px 0px 4px; font-size: 14px;&quot;&gt;&lt;font style=&quot;font-size: 14px;&quot;&gt;+ verify_password()&lt;/font&gt;&lt;/p&gt;" style="verticalAlign=top;align=left;overflow=fill;html=1;whiteSpace=wrap;" vertex="1" parent="1">
          <mxGeometry x="40" y="530" width="200" height="280" as="geometry" />
        </mxCell>
        <mxCell id="GmOgpyumPwBc6sqjCVu6-13" value="&lt;p style=&quot;margin:0px;margin-top:4px;text-align:center;&quot;&gt;&lt;span style=&quot;font-size: 18px;&quot;&gt;&lt;b&gt;Product&lt;/b&gt;&lt;/span&gt;&lt;/p&gt;&lt;hr size=&quot;1&quot; style=&quot;border-style:solid;&quot;&gt;&lt;p style=&quot;margin: 0px 0px 0px 4px; font-size: 14px;&quot;&gt;&lt;span style=&quot;font-size: 13px;&quot;&gt;-&lt;/span&gt;&lt;font style=&quot;font-size: 14px;&quot;&gt;&amp;nbsp;product_id: int (PK)&lt;br&gt;&lt;/font&gt;&lt;/p&gt;&lt;p style=&quot;margin: 0px 0px 0px 4px; font-size: 14px;&quot;&gt;&lt;font style=&quot;font-size: 14px;&quot;&gt;- name: string&lt;/font&gt;&lt;/p&gt;&lt;p style=&quot;margin: 0px 0px 0px 4px; font-size: 14px;&quot;&gt;&lt;font style=&quot;font-size: 14px;&quot;&gt;- price: float&lt;/font&gt;&lt;/p&gt;&lt;p style=&quot;margin: 0px 0px 0px 4px; font-size: 14px;&quot;&gt;&lt;font style=&quot;font-size: 14px;&quot;&gt;- brand_name: string&lt;/font&gt;&lt;/p&gt;&lt;p style=&quot;margin: 0px 0px 0px 4px; font-size: 14px;&quot;&gt;&lt;font style=&quot;font-size: 14px;&quot;&gt;- gender: string&lt;/font&gt;&lt;/p&gt;&lt;p style=&quot;margin: 0px 0px 0px 4px; font-size: 14px;&quot;&gt;&lt;font style=&quot;font-size: 14px;&quot;&gt;- season: string&lt;/font&gt;&lt;/p&gt;&lt;p style=&quot;margin: 0px 0px 0px 4px; font-size: 14px;&quot;&gt;&lt;font style=&quot;font-size: 14px;&quot;&gt;- year: int&lt;/font&gt;&lt;/p&gt;&lt;p style=&quot;margin: 0px 0px 0px 4px; font-size: 14px;&quot;&gt;&lt;font style=&quot;font-size: 14px;&quot;&gt;- description: string&lt;/font&gt;&lt;/p&gt;&lt;p style=&quot;margin: 0px 0px 0px 4px; font-size: 14px;&quot;&gt;&lt;font style=&quot;font-size: 14px;&quot;&gt;- category: string&lt;/font&gt;&lt;/p&gt;&lt;p style=&quot;margin: 0px 0px 0px 4px; font-size: 14px;&quot;&gt;&lt;font style=&quot;font-size: 14px;&quot;&gt;- subcategory: string&lt;/font&gt;&lt;/p&gt;&lt;hr size=&quot;1&quot; style=&quot;border-style:solid;&quot;&gt;&lt;p style=&quot;margin: 0px 0px 0px 4px; font-size: 14px;&quot;&gt;&lt;font style=&quot;font-size: 14px;&quot;&gt;+ search_product()&lt;/font&gt;&lt;/p&gt;&lt;p style=&quot;margin: 0px 0px 0px 4px; font-size: 14px;&quot;&gt;+ get_product_info()&lt;/p&gt;" style="verticalAlign=top;align=left;overflow=fill;html=1;whiteSpace=wrap;" vertex="1" parent="1">
          <mxGeometry x="320" y="40" width="200" height="280" as="geometry" />
        </mxCell>
        <mxCell id="GmOgpyumPwBc6sqjCVu6-14" value="&lt;p style=&quot;margin:0px;margin-top:4px;text-align:center;&quot;&gt;&lt;span style=&quot;font-size: 18px;&quot;&gt;&lt;b&gt;Product Color&lt;/b&gt;&lt;/span&gt;&lt;/p&gt;&lt;hr size=&quot;1&quot; style=&quot;border-style:solid;&quot;&gt;&lt;p style=&quot;margin: 0px 0px 0px 4px; font-size: 14px;&quot;&gt;&lt;span style=&quot;font-size: 13px;&quot;&gt;-&lt;/span&gt;&lt;font style=&quot;font-size: 14px;&quot;&gt;&amp;nbsp;color_id: int (PK)&lt;br&gt;&lt;/font&gt;&lt;/p&gt;&lt;p style=&quot;margin: 0px 0px 0px 4px; font-size: 14px;&quot;&gt;&lt;font style=&quot;font-size: 14px;&quot;&gt;- product_id: int (FK)&lt;/font&gt;&lt;/p&gt;&lt;p style=&quot;margin: 0px 0px 0px 4px; font-size: 14px;&quot;&gt;&lt;font style=&quot;font-size: 14px;&quot;&gt;- base_color: string&lt;/font&gt;&lt;/p&gt;&lt;p style=&quot;margin: 0px 0px 0px 4px; font-size: 14px;&quot;&gt;&lt;font style=&quot;font-size: 14px;&quot;&gt;- secondary_color: string&lt;/font&gt;&lt;/p&gt;&lt;hr size=&quot;1&quot; style=&quot;border-style:solid;&quot;&gt;&lt;p style=&quot;margin: 0px 0px 0px 4px; font-size: 14px;&quot;&gt;&lt;br&gt;&lt;/p&gt;" style="verticalAlign=top;align=left;overflow=fill;html=1;whiteSpace=wrap;" vertex="1" parent="1">
          <mxGeometry x="620" y="40" width="200" height="120" as="geometry" />
        </mxCell>
        <mxCell id="GmOgpyumPwBc6sqjCVu6-15" value="&lt;p style=&quot;margin:0px;margin-top:4px;text-align:center;&quot;&gt;&lt;span style=&quot;font-size: 18px;&quot;&gt;&lt;b&gt;Product Size&lt;/b&gt;&lt;/span&gt;&lt;/p&gt;&lt;hr size=&quot;1&quot; style=&quot;border-style:solid;&quot;&gt;&lt;p style=&quot;margin: 0px 0px 0px 4px; font-size: 14px;&quot;&gt;&lt;span style=&quot;font-size: 13px;&quot;&gt;-&lt;/span&gt;&lt;font style=&quot;font-size: 14px;&quot;&gt;&amp;nbsp;size_id: int (PK)&lt;br&gt;&lt;/font&gt;&lt;/p&gt;&lt;p style=&quot;margin: 0px 0px 0px 4px; font-size: 14px;&quot;&gt;&lt;font style=&quot;font-size: 14px;&quot;&gt;- product_id: int (FK)&lt;/font&gt;&lt;/p&gt;&lt;p style=&quot;margin: 0px 0px 0px 4px; font-size: 14px;&quot;&gt;&lt;font style=&quot;font-size: 14px;&quot;&gt;- value: string&lt;/font&gt;&lt;/p&gt;&lt;hr size=&quot;1&quot; style=&quot;border-style:solid;&quot;&gt;&lt;p style=&quot;margin: 0px 0px 0px 4px; font-size: 14px;&quot;&gt;&lt;br&gt;&lt;/p&gt;" style="verticalAlign=top;align=left;overflow=fill;html=1;whiteSpace=wrap;" vertex="1" parent="1">
          <mxGeometry x="620" y="190" width="200" height="100" as="geometry" />
        </mxCell>
        <mxCell id="GmOgpyumPwBc6sqjCVu6-17" value="&lt;p style=&quot;margin:0px;margin-top:4px;text-align:center;&quot;&gt;&lt;span style=&quot;font-size: 18px;&quot;&gt;&lt;b&gt;Product Image&lt;/b&gt;&lt;/span&gt;&lt;/p&gt;&lt;hr size=&quot;1&quot; style=&quot;border-style:solid;&quot;&gt;&lt;p style=&quot;margin: 0px 0px 0px 4px; font-size: 14px;&quot;&gt;&lt;span style=&quot;font-size: 13px;&quot;&gt;-&lt;/span&gt;&lt;font style=&quot;font-size: 14px;&quot;&gt;&amp;nbsp;image_id: int (PK)&lt;br&gt;&lt;/font&gt;&lt;/p&gt;&lt;p style=&quot;margin: 0px 0px 0px 4px; font-size: 14px;&quot;&gt;&lt;font style=&quot;font-size: 14px;&quot;&gt;- product_id: int (FK)&lt;/font&gt;&lt;/p&gt;&lt;p style=&quot;margin: 0px 0px 0px 4px; font-size: 14px;&quot;&gt;- url: string&lt;/p&gt;&lt;hr size=&quot;1&quot; style=&quot;border-style:solid;&quot;&gt;&lt;p style=&quot;margin: 0px 0px 0px 4px; font-size: 14px;&quot;&gt;&lt;br&gt;&lt;/p&gt;" style="verticalAlign=top;align=left;overflow=fill;html=1;whiteSpace=wrap;" vertex="1" parent="1">
          <mxGeometry x="620" y="330" width="200" height="100" as="geometry" />
        </mxCell>
        <mxCell id="GmOgpyumPwBc6sqjCVu6-57" style="edgeStyle=orthogonalEdgeStyle;rounded=0;orthogonalLoop=1;jettySize=auto;html=1;entryX=0.5;entryY=1;entryDx=0;entryDy=0;strokeWidth=2;endArrow=none;endFill=0;" edge="1" parent="1" source="GmOgpyumPwBc6sqjCVu6-18" target="GmOgpyumPwBc6sqjCVu6-13">
          <mxGeometry relative="1" as="geometry" />
        </mxCell>
        <mxCell id="GmOgpyumPwBc6sqjCVu6-18" value="&lt;p style=&quot;margin:0px;margin-top:4px;text-align:center;&quot;&gt;&lt;span style=&quot;font-size: 18px;&quot;&gt;&lt;b&gt;Cart&lt;/b&gt;&lt;/span&gt;&lt;/p&gt;&lt;hr size=&quot;1&quot; style=&quot;border-style:solid;&quot;&gt;&lt;p style=&quot;margin: 0px 0px 0px 4px; font-size: 14px;&quot;&gt;&lt;span style=&quot;font-size: 13px;&quot;&gt;-&lt;/span&gt;&lt;font style=&quot;font-size: 14px;&quot;&gt;&amp;nbsp;cart_id: int (PK)&lt;br&gt;&lt;/font&gt;&lt;/p&gt;&lt;p style=&quot;margin: 0px 0px 0px 4px; font-size: 14px;&quot;&gt;&lt;font style=&quot;font-size: 14px;&quot;&gt;- user_id: int (FK)&lt;/font&gt;&lt;/p&gt;&lt;p style=&quot;margin: 0px 0px 0px 4px; font-size: 14px;&quot;&gt;&lt;font style=&quot;font-size: 14px;&quot;&gt;- product_id: int (FK)&lt;/font&gt;&lt;/p&gt;&lt;p style=&quot;margin: 0px 0px 0px 4px; font-size: 14px;&quot;&gt;&lt;font style=&quot;font-size: 14px;&quot;&gt;- quantity: int&lt;/font&gt;&lt;/p&gt;&lt;p style=&quot;margin: 0px 0px 0px 4px; font-size: 14px;&quot;&gt;&lt;font style=&quot;font-size: 14px;&quot;&gt;- total_price: float&lt;/font&gt;&lt;/p&gt;&lt;p style=&quot;margin: 0px 0px 0px 4px; font-size: 14px;&quot;&gt;&lt;font style=&quot;font-size: 14px;&quot;&gt;- created_at: datetime&lt;/font&gt;&lt;/p&gt;&lt;hr size=&quot;1&quot; style=&quot;border-style:solid;&quot;&gt;&lt;p style=&quot;margin: 0px 0px 0px 4px; font-size: 14px;&quot;&gt;&lt;font style=&quot;font-size: 14px;&quot;&gt;+ update_cart()&lt;/font&gt;&lt;/p&gt;&lt;p style=&quot;margin: 0px 0px 0px 4px; font-size: 14px;&quot;&gt;+ get_cart_info()&lt;/p&gt;&lt;p style=&quot;margin: 0px 0px 0px 4px; font-size: 14px;&quot;&gt;+ delete_cart_item()&lt;/p&gt;&lt;p style=&quot;margin: 0px 0px 0px 4px; font-size: 14px;&quot;&gt;+ add_cart_item()&lt;/p&gt;" style="verticalAlign=top;align=left;overflow=fill;html=1;whiteSpace=wrap;" vertex="1" parent="1">
          <mxGeometry x="400" y="520" width="200" height="240" as="geometry" />
        </mxCell>
        <mxCell id="GmOgpyumPwBc6sqjCVu6-20" value="&lt;p style=&quot;margin:0px;margin-top:4px;text-align:center;&quot;&gt;&lt;span style=&quot;font-size: 18px;&quot;&gt;&lt;b&gt;Order&lt;/b&gt;&lt;/span&gt;&lt;/p&gt;&lt;hr size=&quot;1&quot; style=&quot;border-style:solid;&quot;&gt;&lt;p style=&quot;margin: 0px 0px 0px 4px;&quot;&gt;&lt;span style=&quot;font-size: 13px;&quot;&gt;- order_id: int (PK)&lt;/span&gt;&lt;/p&gt;&lt;p style=&quot;margin: 0px 0px 0px 4px;&quot;&gt;&lt;span style=&quot;font-size: 13px;&quot;&gt;- user_id: int (FK)&lt;/span&gt;&lt;/p&gt;&lt;p style=&quot;margin: 0px 0px 0px 4px;&quot;&gt;&lt;span style=&quot;font-size: 13px;&quot;&gt;- total_price: float&lt;/span&gt;&lt;/p&gt;&lt;p style=&quot;margin: 0px 0px 0px 4px;&quot;&gt;&lt;span style=&quot;font-size: 13px;&quot;&gt;- created_at: datetime&lt;/span&gt;&lt;/p&gt;&lt;hr size=&quot;1&quot; style=&quot;border-style:solid;&quot;&gt;&lt;p style=&quot;margin: 0px 0px 0px 4px; font-size: 14px;&quot;&gt;&lt;font style=&quot;font-size: 14px;&quot;&gt;+ order_list()&lt;/font&gt;&lt;/p&gt;&lt;p style=&quot;margin: 0px 0px 0px 4px; font-size: 14px;&quot;&gt;&lt;font style=&quot;font-size: 14px;&quot;&gt;+ delete_order()&lt;/font&gt;&lt;/p&gt;" style="verticalAlign=top;align=left;overflow=fill;html=1;whiteSpace=wrap;" vertex="1" parent="1">
          <mxGeometry x="40" y="270" width="200" height="160" as="geometry" />
        </mxCell>
        <mxCell id="GmOgpyumPwBc6sqjCVu6-21" value="&lt;p style=&quot;margin:0px;margin-top:4px;text-align:center;&quot;&gt;&lt;span style=&quot;font-size: 18px;&quot;&gt;&lt;b&gt;Order Item&lt;/b&gt;&lt;/span&gt;&lt;/p&gt;&lt;hr size=&quot;1&quot; style=&quot;border-style:solid;&quot;&gt;&lt;p style=&quot;margin: 0px 0px 0px 4px;&quot;&gt;&lt;span style=&quot;font-size: 13px;&quot;&gt;- order_item_id: int (PK)&lt;/span&gt;&lt;/p&gt;&lt;p style=&quot;margin: 0px 0px 0px 4px;&quot;&gt;&lt;span style=&quot;font-size: 13px;&quot;&gt;- order_id: int (FK)&lt;/span&gt;&lt;/p&gt;&lt;p style=&quot;margin: 0px 0px 0px 4px;&quot;&gt;&lt;span style=&quot;font-size: 13px;&quot;&gt;- product_id: int (FK)&lt;/span&gt;&lt;/p&gt;&lt;p style=&quot;margin: 0px 0px 0px 4px;&quot;&gt;&lt;span style=&quot;font-size: 13px;&quot;&gt;- quantity: int&lt;/span&gt;&lt;/p&gt;&lt;p style=&quot;margin: 0px 0px 0px 4px;&quot;&gt;&lt;span style=&quot;font-size: 13px;&quot;&gt;- total_price: float&lt;/span&gt;&lt;/p&gt;&lt;hr size=&quot;1&quot; style=&quot;border-style:solid;&quot;&gt;&lt;p style=&quot;margin: 0px 0px 0px 4px; font-size: 14px;&quot;&gt;&lt;br&gt;&lt;/p&gt;" style="verticalAlign=top;align=left;overflow=fill;html=1;whiteSpace=wrap;" vertex="1" parent="1">
          <mxGeometry x="40" y="40" width="200" height="130" as="geometry" />
        </mxCell>
        <mxCell id="GmOgpyumPwBc6sqjCVu6-37" value="&lt;font style=&quot;font-size: 28px;&quot;&gt;*&lt;/font&gt;" style="text;html=1;align=center;verticalAlign=middle;whiteSpace=wrap;rounded=0;" vertex="1" parent="1">
          <mxGeometry x="590" y="370" width="20" height="20" as="geometry" />
        </mxCell>
        <mxCell id="GmOgpyumPwBc6sqjCVu6-38" value="&lt;font style=&quot;font-size: 28px;&quot;&gt;*&lt;/font&gt;" style="text;html=1;align=center;verticalAlign=middle;whiteSpace=wrap;rounded=0;" vertex="1" parent="1">
          <mxGeometry x="590" y="230" width="20" height="20" as="geometry" />
        </mxCell>
        <mxCell id="GmOgpyumPwBc6sqjCVu6-39" value="&lt;font style=&quot;font-size: 28px;&quot;&gt;*&lt;/font&gt;" style="text;html=1;align=center;verticalAlign=middle;whiteSpace=wrap;rounded=0;" vertex="1" parent="1">
          <mxGeometry x="590" y="80" width="20" height="20" as="geometry" />
        </mxCell>
        <mxCell id="GmOgpyumPwBc6sqjCVu6-41" value="" style="endArrow=diamondThin;endFill=1;endSize=24;html=1;rounded=0;entryX=0.5;entryY=1;entryDx=0;entryDy=0;exitX=0.5;exitY=0;exitDx=0;exitDy=0;" edge="1" parent="1" source="GmOgpyumPwBc6sqjCVu6-20" target="GmOgpyumPwBc6sqjCVu6-21">
          <mxGeometry width="160" relative="1" as="geometry">
            <mxPoint x="140" y="230" as="sourcePoint" />
            <mxPoint x="230" y="210" as="targetPoint" />
          </mxGeometry>
        </mxCell>
        <mxCell id="GmOgpyumPwBc6sqjCVu6-42" value="&lt;font style=&quot;font-size: 19px;&quot;&gt;1&lt;/font&gt;" style="text;html=1;align=center;verticalAlign=middle;whiteSpace=wrap;rounded=0;" vertex="1" parent="1">
          <mxGeometry x="80" y="240" width="60" height="30" as="geometry" />
        </mxCell>
        <mxCell id="GmOgpyumPwBc6sqjCVu6-43" value="&lt;font style=&quot;font-size: 27px;&quot;&gt;*&lt;/font&gt;" style="text;html=1;align=center;verticalAlign=middle;whiteSpace=wrap;rounded=0;" vertex="1" parent="1">
          <mxGeometry x="80" y="180" width="60" height="30" as="geometry" />
        </mxCell>
        <mxCell id="GmOgpyumPwBc6sqjCVu6-45" value="&lt;font style=&quot;font-size: 19px;&quot;&gt;1&lt;/font&gt;" style="text;html=1;align=center;verticalAlign=middle;whiteSpace=wrap;rounded=0;" vertex="1" parent="1">
          <mxGeometry x="80" y="500" width="60" height="30" as="geometry" />
        </mxCell>
        <mxCell id="GmOgpyumPwBc6sqjCVu6-46" value="&lt;font style=&quot;font-size: 27px;&quot;&gt;*&lt;/font&gt;" style="text;html=1;align=center;verticalAlign=middle;whiteSpace=wrap;rounded=0;" vertex="1" parent="1">
          <mxGeometry x="80" y="440" width="60" height="30" as="geometry" />
        </mxCell>
        <mxCell id="GmOgpyumPwBc6sqjCVu6-47" style="edgeStyle=orthogonalEdgeStyle;rounded=0;orthogonalLoop=1;jettySize=auto;html=1;entryX=0;entryY=0.571;entryDx=0;entryDy=0;entryPerimeter=0;endArrow=none;endFill=0;strokeWidth=2;" edge="1" parent="1" source="GmOgpyumPwBc6sqjCVu6-21" target="GmOgpyumPwBc6sqjCVu6-13">
          <mxGeometry relative="1" as="geometry" />
        </mxCell>
        <mxCell id="GmOgpyumPwBc6sqjCVu6-49" value="&lt;font style=&quot;font-size: 19px;&quot;&gt;1&lt;/font&gt;" style="text;html=1;align=center;verticalAlign=middle;whiteSpace=wrap;rounded=0;" vertex="1" parent="1">
          <mxGeometry x="270" y="210" width="60" height="30" as="geometry" />
        </mxCell>
        <mxCell id="GmOgpyumPwBc6sqjCVu6-51" value="&lt;font style=&quot;font-size: 19px;&quot;&gt;1&lt;/font&gt;" style="text;html=1;align=center;verticalAlign=middle;whiteSpace=wrap;rounded=0;" vertex="1" parent="1">
          <mxGeometry x="240" y="680" width="60" height="30" as="geometry" />
        </mxCell>
        <mxCell id="GmOgpyumPwBc6sqjCVu6-52" value="&lt;font style=&quot;font-size: 27px;&quot;&gt;*&lt;/font&gt;" style="text;html=1;align=center;verticalAlign=middle;whiteSpace=wrap;rounded=0;" vertex="1" parent="1">
          <mxGeometry x="340" y="550" width="60" height="30" as="geometry" />
        </mxCell>
        <mxCell id="GmOgpyumPwBc6sqjCVu6-53" value="" style="endArrow=diamondThin;endFill=0;endSize=24;html=1;rounded=0;entryX=1;entryY=0.5;entryDx=0;entryDy=0;edgeStyle=orthogonalEdgeStyle;strokeWidth=2;" edge="1" parent="1" source="GmOgpyumPwBc6sqjCVu6-14" target="GmOgpyumPwBc6sqjCVu6-13">
          <mxGeometry width="160" relative="1" as="geometry">
            <mxPoint x="420" y="370" as="sourcePoint" />
            <mxPoint x="580" y="370" as="targetPoint" />
          </mxGeometry>
        </mxCell>
        <mxCell id="GmOgpyumPwBc6sqjCVu6-54" value="" style="endArrow=diamondThin;endFill=0;endSize=24;html=1;rounded=0;exitX=-0.016;exitY=0.64;exitDx=0;exitDy=0;exitPerimeter=0;edgeStyle=orthogonalEdgeStyle;entryX=1;entryY=0.5;entryDx=0;entryDy=0;strokeWidth=2;" edge="1" parent="1" source="GmOgpyumPwBc6sqjCVu6-15" target="GmOgpyumPwBc6sqjCVu6-13">
          <mxGeometry width="160" relative="1" as="geometry">
            <mxPoint x="390" y="400" as="sourcePoint" />
            <mxPoint x="530" y="170" as="targetPoint" />
          </mxGeometry>
        </mxCell>
        <mxCell id="GmOgpyumPwBc6sqjCVu6-55" value="" style="endArrow=diamondThin;endFill=0;endSize=24;html=1;rounded=0;edgeStyle=orthogonalEdgeStyle;entryX=1;entryY=0.5;entryDx=0;entryDy=0;strokeWidth=2;" edge="1" parent="1" source="GmOgpyumPwBc6sqjCVu6-17" target="GmOgpyumPwBc6sqjCVu6-13">
          <mxGeometry width="160" relative="1" as="geometry">
            <mxPoint x="610" y="390" as="sourcePoint" />
            <mxPoint x="530" y="165" as="targetPoint" />
            <Array as="points">
              <mxPoint x="570" y="391" />
              <mxPoint x="570" y="180" />
            </Array>
          </mxGeometry>
        </mxCell>
        <mxCell id="GmOgpyumPwBc6sqjCVu6-59" value="&lt;font style=&quot;font-size: 28px;&quot;&gt;*&lt;/font&gt;" style="text;html=1;align=center;verticalAlign=middle;whiteSpace=wrap;rounded=0;" vertex="1" parent="1">
          <mxGeometry x="530" y="150" width="20" height="20" as="geometry" />
        </mxCell>
        <mxCell id="GmOgpyumPwBc6sqjCVu6-60" value="&lt;font style=&quot;font-size: 27px;&quot;&gt;*&lt;/font&gt;" style="text;html=1;align=center;verticalAlign=middle;whiteSpace=wrap;rounded=0;" vertex="1" parent="1">
          <mxGeometry x="230" y="75" width="60" height="30" as="geometry" />
        </mxCell>
        <mxCell id="GmOgpyumPwBc6sqjCVu6-61" value="&lt;font style=&quot;font-size: 27px;&quot;&gt;*&lt;/font&gt;" style="text;html=1;align=center;verticalAlign=middle;whiteSpace=wrap;rounded=0;" vertex="1" parent="1">
          <mxGeometry x="490" y="490" width="60" height="30" as="geometry" />
        </mxCell>
        <mxCell id="GmOgpyumPwBc6sqjCVu6-62" value="&lt;font style=&quot;font-size: 19px;&quot;&gt;1&lt;/font&gt;" style="text;html=1;align=center;verticalAlign=middle;whiteSpace=wrap;rounded=0;" vertex="1" parent="1">
          <mxGeometry x="370" y="330" width="60" height="30" as="geometry" />
        </mxCell>
      </root>
    </mxGraphModel>
  </diagram>
</mxfile>
